# xmcd
#
# Track frame offsets:
#	150
#	14584
#	28053
#	41035
#	49076
#	66834
#	89676
#	112863
#	126886
#	139072
#	157110
#
# Disc length: 2445 seconds
# Revision: 0
# Processed by: cddbd v1.5.2PL0 Copyright (c) Steve Scherf et al.
# Submitted via: dBpowerAMP V12.0
#
DISCID=9b098b0b
DTITLE=Professor Porkchop and the Dishes - U R My Everything
DYEAR=2012
DGENRE=Blues
TTITLE0=U R My Everything
TTITLE1=Blame It On The Moon
TTITLE2=Move to New Orleans
TTITLE3=Sprague Street Rag
TTITLE4=Early in the Morning
TTITLE5=Junkie for Your Love
TTITLE6=Puerto Rican Hotel
TTITLE7=Roll With My Baby
TTITLE8=Knock Me a Kiss
TTITLE9=Can't Stop Thinkin
TTITLE10=I'm Gone
EXTD=
EXTT0=
EXTT1=
EXTT2=
EXTT3=
EXTT4=
EXTT5=
EXTT6=
EXTT7=
EXTT8=
EXTT9=
EXTT10=
PLAYORDER=
